<?xml version="1.0" encoding="UTF-8" standalone="no"?>
<!-- Created with Inkscape (http://www.inkscape.org/) -->

<svg
   xmlns:ns1="http://www.iki.fi/pav/software/textext/"
   xmlns:dc="http://purl.org/dc/elements/1.1/"
   xmlns:cc="http://creativecommons.org/ns#"
   xmlns:rdf="http://www.w3.org/1999/02/22-rdf-syntax-ns#"
   xmlns:svg="http://www.w3.org/2000/svg"
   xmlns="http://www.w3.org/2000/svg"
   xmlns:sodipodi="http://sodipodi.sourceforge.net/DTD/sodipodi-0.dtd"
   xmlns:inkscape="http://www.inkscape.org/namespaces/inkscape"
   width="91.655899mm"
   height="54.605846mm"
   viewBox="0 0 91.6559 54.605846"
   version="1.1"
   id="svg2056"
   sodipodi:docname="RL_dqn_architecture_simplified.svg"
   inkscape:version="0.92.4 (5da689c313, 2019-01-14)">
  <sodipodi:namedview
     id="base"
     pagecolor="#ffffff"
     bordercolor="#666666"
     borderopacity="1.0"
     inkscape:pageopacity="0.0"
     inkscape:pageshadow="2"
     inkscape:zoom="2.8"
     inkscape:cx="226.70655"
     inkscape:cy="129.99811"
     inkscape:document-units="mm"
     inkscape:current-layer="layer1"
     showgrid="true"
     inkscape:window-width="2560"
     inkscape:window-height="1377"
     inkscape:window-x="-8"
     inkscape:window-y="-8"
     inkscape:window-maximized="1"
     inkscape:snap-global="false">
    <inkscape:grid
       originy="-229.94948"
       originx="-2.5135417"
       id="grid2686"
       type="xygrid" />
  </sodipodi:namedview>
  <defs
     id="defs2050">
    <marker
       inkscape:isstock="true"
       style="overflow:visible"
       id="marker1478"
       refX="0"
       refY="0"
       orient="auto"
       inkscape:stockid="TriangleOutL">
      <path
         transform="scale(0.8)"
         style="fill:#000000;fill-opacity:1;fill-rule:evenodd;stroke:#000000;stroke-width:1.00000003pt;stroke-opacity:1"
         d="M 5.77,0 -2.88,5 V -5 Z"
         id="path1476"
         inkscape:connector-curvature="0" />
    </marker>
    <marker
       inkscape:isstock="true"
       style="overflow:visible"
       id="marker3640"
       refX="0"
       refY="0"
       orient="auto"
       inkscape:stockid="TriangleOutL">
      <path
         inkscape:connector-curvature="0"
         transform="scale(0.8)"
         style="fill:#000000;fill-opacity:1;fill-rule:evenodd;stroke:#000000;stroke-width:1.00000003pt;stroke-opacity:1"
         d="M 5.77,0 -2.88,5 V -5 Z"
         id="path3638" />
    </marker>
    <marker
       inkscape:collect="always"
       inkscape:stockid="TriangleOutL"
       orient="auto"
       refY="0"
       refX="0"
       id="marker3342"
       style="overflow:visible"
       inkscape:isstock="true">
      <path
         inkscape:connector-curvature="0"
         id="path3340"
         d="M 5.77,0 -2.88,5 V -5 Z"
         style="fill:#000000;fill-opacity:1;fill-rule:evenodd;stroke:#000000;stroke-width:1.00000003pt;stroke-opacity:1"
         transform="scale(0.8)" />
    </marker>
    <marker
       inkscape:collect="always"
       inkscape:isstock="true"
       style="overflow:visible"
       id="TriangleOutL"
       refX="0"
       refY="0"
       orient="auto"
       inkscape:stockid="TriangleOutL">
      <path
         inkscape:connector-curvature="0"
         transform="scale(0.8)"
         style="fill:#000000;fill-opacity:1;fill-rule:evenodd;stroke:#000000;stroke-width:1.00000003pt;stroke-opacity:1"
         d="M 5.77,0 -2.88,5 V -5 Z"
         id="path2888" />
    </marker>
    <marker
       inkscape:stockid="TriangleOutM"
       orient="auto"
       refY="0"
       refX="0"
       id="marker3066"
       style="overflow:visible"
       inkscape:isstock="true">
      <path
         inkscape:connector-curvature="0"
         id="path3064"
         d="M 5.77,0 -2.88,5 V -5 Z"
         style="fill:#000000;fill-opacity:1;fill-rule:evenodd;stroke:#000000;stroke-width:1.00000003pt;stroke-opacity:1"
         transform="scale(0.4)" />
    </marker>
    <marker
       inkscape:stockid="TriangleOutM"
       orient="auto"
       refY="0"
       refX="0"
       id="marker3044"
       style="overflow:visible"
       inkscape:isstock="true">
      <path
         inkscape:connector-curvature="0"
         id="path3042"
         d="M 5.77,0 -2.88,5 V -5 Z"
         style="fill:#000000;fill-opacity:1;fill-rule:evenodd;stroke:#000000;stroke-width:1.00000003pt;stroke-opacity:1"
         transform="scale(0.4)" />
    </marker>
    <marker
       inkscape:isstock="true"
       style="overflow:visible"
       id="marker1478-0"
       refX="0"
       refY="0"
       orient="auto"
       inkscape:stockid="TriangleOutL">
      <path
         transform="scale(0.8)"
         style="fill:#000000;fill-opacity:1;fill-rule:evenodd;stroke:#000000;stroke-width:1.00000003pt;stroke-opacity:1"
         d="M 5.77,0 -2.88,5 V -5 Z"
         id="path1476-1"
         inkscape:connector-curvature="0" />
    </marker>
    <marker
       inkscape:isstock="true"
       style="overflow:visible"
       id="marker1478-0-7"
       refX="0"
       refY="0"
       orient="auto"
       inkscape:stockid="TriangleOutL">
      <path
         transform="scale(0.8)"
         style="fill:#000000;fill-opacity:1;fill-rule:evenodd;stroke:#000000;stroke-width:1.00000003pt;stroke-opacity:1"
         d="M 5.77,0 -2.88,5 V -5 Z"
         id="path1476-1-2"
         inkscape:connector-curvature="0" />
    </marker>
    <marker
       inkscape:isstock="true"
       style="overflow:visible"
       id="marker1478-0-75"
       refX="0"
       refY="0"
       orient="auto"
       inkscape:stockid="TriangleOutL">
      <path
         transform="scale(0.8)"
         style="fill:#000000;fill-opacity:1;fill-rule:evenodd;stroke:#000000;stroke-width:1.00000003pt;stroke-opacity:1"
         d="M 5.77,0 -2.88,5 V -5 Z"
         id="path1476-1-8"
         inkscape:connector-curvature="0" />
    </marker>
  </defs>
  <metadata
     id="metadata2053">
    <rdf:RDF>
      <cc:Work
         rdf:about="">
        <dc:format>image/svg+xml</dc:format>
        <dc:type
           rdf:resource="http://purl.org/dc/dcmitype/StillImage" />
        <dc:title />
      </cc:Work>
    </rdf:RDF>
  </metadata>
  <g
     transform="translate(-2.5135416,-12.444655)"
     id="layer1"
     inkscape:groupmode="layer"
     inkscape:label="Layer 1">
    <rect
       ry="1.3229195"
       y="17.864584"
       x="29.104166"
       height="27.781242"
       width="48.050232"
       id="rect2601-6-1-2"
       style="opacity:1;vector-effect:none;fill:none;fill-opacity:1;stroke:#000000;stroke-width:0.66500002;stroke-linecap:butt;stroke-linejoin:miter;stroke-miterlimit:4;stroke-dasharray:none;stroke-dashoffset:0;stroke-opacity:1;paint-order:normal" />
    <g
       style="fill:#daf9f5;fill-opacity:1"
       transform="translate(-0.37797864,-17.953868)"
       id="g2742">
      <rect
         style="opacity:1;vector-effect:none;fill:#daf9f5;fill-opacity:1;stroke:#000000;stroke-width:0.66500002;stroke-linecap:butt;stroke-linejoin:miter;stroke-miterlimit:4;stroke-dasharray:none;stroke-dashoffset:0;stroke-opacity:1;paint-order:normal"
         id="rect2601"
         width="64.728424"
         height="13.134668"
         x="17.575895"
         y="71.537201"
         ry="1.3229192" />
      <text
         xml:space="preserve"
         style="font-style:normal;font-weight:normal;font-size:4.48400688px;line-height:1.25;font-family:sans-serif;letter-spacing:0px;word-spacing:0px;fill:#000000;fill-opacity:1;stroke:none;stroke-width:0.11210018"
         x="21.274685"
         y="78.361"
         id="text2620"><tspan
           sodipodi:role="line"
           x="21.274685"
           y="78.361"
           style="font-style:normal;font-variant:normal;font-weight:500;font-stretch:normal;font-size:4.48400688px;font-family:'CMU Serif';-inkscape-font-specification:'CMU Serif, Medium';font-variant-ligatures:normal;font-variant-caps:normal;font-variant-numeric:normal;font-feature-settings:normal;text-align:start;writing-mode:lr-tb;text-anchor:start;fill:#000000;fill-opacity:1;stroke-width:0.11210018"
           id="tspan1654">Mobile Network Environment</tspan></text>
    </g>
    <rect
       ry="0.66740918"
       y="24.384392"
       x="36.085945"
       height="5.7492433"
       width="15.235103"
       id="rect2601-6-1"
       style="opacity:1;vector-effect:none;fill:#f7efd5;fill-opacity:1;stroke:#000000;stroke-width:0.33549067;stroke-linecap:butt;stroke-linejoin:miter;stroke-miterlimit:4;stroke-dasharray:none;stroke-dashoffset:0;stroke-opacity:1;paint-order:normal" />
    <text
       id="text2620-5-1"
       y="28.159843"
       x="37.207474"
       style="font-style:normal;font-weight:normal;font-size:2.74719763px;line-height:1.25;font-family:sans-serif;letter-spacing:0px;word-spacing:0px;fill:#000000;fill-opacity:1;stroke:none;stroke-width:0.06867993"
       xml:space="preserve"><tspan
         style="font-style:normal;font-variant:normal;font-weight:500;font-stretch:normal;font-size:2.74719763px;font-family:'CMU Serif';-inkscape-font-specification:'CMU Serif, Medium';font-variant-ligatures:normal;font-variant-caps:normal;font-variant-numeric:normal;font-feature-settings:normal;text-align:start;writing-mode:lr-tb;text-anchor:start;stroke-width:0.06867993"
         y="28.159843"
         x="37.207474"
         id="tspan2618-0-2"
         sodipodi:role="line">Q-network</tspan></text>
    <text
       id="text2620-5-1-0"
       y="31.904049"
       x="48.311085"
       style="font-style:normal;font-weight:normal;font-size:1.75501013px;line-height:1.25;font-family:sans-serif;letter-spacing:0px;word-spacing:0px;fill:#000000;fill-opacity:1;stroke:none;stroke-width:0.04387525"
       xml:space="preserve"><tspan
         style="font-style:normal;font-variant:normal;font-weight:500;font-stretch:normal;font-size:1.75501013px;font-family:'CMU Serif';-inkscape-font-specification:'CMU Serif, Medium';font-variant-ligatures:normal;font-variant-caps:normal;font-variant-numeric:normal;font-feature-settings:normal;text-align:start;writing-mode:lr-tb;text-anchor:start;stroke-width:0.04387525"
         y="31.904049"
         x="48.311085"
         id="tspan2618-0-2-0"
         sodipodi:role="line">Eq. (9.14)</tspan></text>
    <text
       id="text2620-5-1-7"
       y="15.430401"
       x="28.622288"
       style="font-style:normal;font-weight:normal;font-size:4.17108297px;line-height:1.25;font-family:sans-serif;letter-spacing:0px;word-spacing:0px;fill:#000000;fill-opacity:1;stroke:none;stroke-width:0.10427707"
       xml:space="preserve"><tspan
         style="font-style:normal;font-variant:normal;font-weight:500;font-stretch:normal;font-size:4.17108297px;font-family:'CMU Serif';-inkscape-font-specification:'CMU Serif, Medium';font-variant-ligatures:normal;font-variant-caps:normal;font-variant-numeric:normal;font-feature-settings:normal;text-align:start;writing-mode:lr-tb;text-anchor:start;stroke-width:0.10427707"
         y="15.430401"
         x="28.622288"
         id="tspan2618-0-2-5"
         sodipodi:role="line">DQN Agent</tspan></text>
    <path
       sodipodi:nodetypes="ccccc"
       inkscape:connector-curvature="0"
       id="path2744"
       d="m 43.65625,24.479167 v -3.96875 l 44.979167,-7e-6 v 39.6875 l -3.96875,7e-6"
       style="fill:none;stroke:#000000;stroke-width:0.26499999;stroke-linecap:butt;stroke-linejoin:miter;stroke-miterlimit:4;stroke-dasharray:none;stroke-opacity:1;marker-end:url(#marker3640)" />
    <path
       sodipodi:nodetypes="cccc"
       inkscape:connector-curvature="0"
       id="path3028"
       d="M 17.056175,57.552083 H 9.2604167 V 40.354167 H 33.974951"
       style="fill:none;stroke:#000000;stroke-width:0.26458332px;stroke-linecap:butt;stroke-linejoin:miter;stroke-opacity:1;marker-end:url(#TriangleOutL)" />
    <path
       sodipodi:nodetypes="cccc"
       inkscape:connector-curvature="0"
       id="path3034"
       d="M 17.103422,62.84375 H 2.6458333 V 27.125 H 33.639881"
       style="fill:none;stroke:#000000;stroke-width:0.26458332px;stroke-linecap:butt;stroke-linejoin:miter;stroke-opacity:1;marker-end:url(#marker3342)" />
    <text
       id="text2620-5-1-7-9"
       y="36.749443"
       x="5.5497069"
       style="font-style:normal;font-weight:normal;font-size:1.93929195px;line-height:1.25;font-family:sans-serif;letter-spacing:0px;word-spacing:0px;fill:#000000;fill-opacity:1;stroke:none;stroke-width:0.0484823"
       xml:space="preserve"><tspan
         id="tspan6473"
         style="font-style:normal;font-variant:normal;font-weight:500;font-stretch:normal;font-size:1.93929195px;font-family:'CMU Serif';-inkscape-font-specification:'CMU Serif, Medium';font-variant-ligatures:normal;font-variant-caps:normal;font-variant-numeric:normal;font-feature-settings:normal;text-align:start;writing-mode:lr-tb;text-anchor:start;stroke-width:0.0484823"
         y="36.749443"
         x="5.5497069"
         sodipodi:role="line">Reward-term</tspan><tspan
         style="font-style:normal;font-variant:normal;font-weight:500;font-stretch:normal;font-size:1.93929195px;font-family:'CMU Serif';-inkscape-font-specification:'CMU Serif, Medium';font-variant-ligatures:normal;font-variant-caps:normal;font-variant-numeric:normal;font-feature-settings:normal;text-align:start;writing-mode:lr-tb;text-anchor:start;stroke-width:0.0484823"
         y="39.19775"
         x="5.5497069"
         sodipodi:role="line"
         id="tspan1631">(channel estimation error)</tspan></text>
    <text
       id="text2620-5-1-7-9-6"
       y="25.611496"
       x="6.9524612"
       style="font-style:normal;font-weight:normal;font-size:2.19338679px;line-height:1.25;font-family:sans-serif;letter-spacing:0px;word-spacing:0px;fill:#000000;fill-opacity:1;stroke:none;stroke-width:0.05483466"
       xml:space="preserve"><tspan
         id="tspan6525"
         style="font-style:normal;font-variant:normal;font-weight:500;font-stretch:normal;font-size:2.19338679px;font-family:'CMU Serif';-inkscape-font-specification:'CMU Serif, Medium';font-variant-ligatures:normal;font-variant-caps:normal;font-variant-numeric:normal;font-feature-settings:normal;text-align:start;writing-mode:lr-tb;text-anchor:start;stroke-width:0.05483466"
         y="25.611496"
         x="6.9524612"
         sodipodi:role="line">Channel Estimation</tspan></text>
    <text
       id="text2620-5-1-7-9-6-9"
       y="19.506174"
       x="78.489601"
       style="font-style:normal;font-weight:normal;font-size:2.37569618px;line-height:1.25;font-family:sans-serif;letter-spacing:0px;word-spacing:0px;fill:#000000;fill-opacity:1;stroke:none;stroke-width:0.0593924"
       xml:space="preserve"><tspan
         id="tspan6473-6-2"
         style="font-style:normal;font-variant:normal;font-weight:500;font-stretch:normal;font-size:2.37569618px;font-family:'CMU Serif';-inkscape-font-specification:'CMU Serif, Medium';font-variant-ligatures:normal;font-variant-caps:normal;font-variant-numeric:normal;font-feature-settings:normal;text-align:start;writing-mode:lr-tb;text-anchor:start;stroke-width:0.0593924"
         y="19.506174"
         x="78.489601"
         sodipodi:role="line">Action</tspan></text>
    <g
       transform="matrix(0.76262088,0,0,0.76262088,26.724566,-1.2849019)"
       id="g1402">
      <rect
         style="opacity:1;vector-effect:none;fill:#f7efd5;fill-opacity:1;stroke:#000000;stroke-width:0.45154321;stroke-linecap:butt;stroke-linejoin:miter;stroke-miterlimit:4;stroke-dasharray:none;stroke-dashoffset:0;stroke-opacity:1;paint-order:normal"
         id="rect2601-6-1-9"
         width="20.505211"
         height="11.092553"
         x="40.358406"
         y="33.226879"
         ry="0.89827859" />
      <text
         xml:space="preserve"
         style="font-style:normal;font-weight:normal;font-size:3.69750476px;line-height:1.25;font-family:sans-serif;letter-spacing:0px;word-spacing:0px;fill:#000000;fill-opacity:1;stroke:none;stroke-width:0.09243762"
         x="41.782467"
         y="37.521305"
         id="text2620-5-1-9"><tspan
           sodipodi:role="line"
           x="41.782467"
           y="37.521305"
           style="font-style:normal;font-variant:normal;font-weight:500;font-stretch:normal;font-size:3.69750476px;font-family:'CMU Serif';-inkscape-font-specification:'CMU Serif, Medium';font-variant-ligatures:normal;font-variant-caps:normal;font-variant-numeric:normal;font-feature-settings:normal;text-align:start;writing-mode:lr-tb;text-anchor:start;stroke-width:0.09243762"
           id="tspan1294">Target</tspan><tspan
           sodipodi:role="line"
           x="41.782467"
           y="42.189312"
           style="font-style:normal;font-variant:normal;font-weight:500;font-stretch:normal;font-size:3.69750476px;font-family:'CMU Serif';-inkscape-font-specification:'CMU Serif, Medium';font-variant-ligatures:normal;font-variant-caps:normal;font-variant-numeric:normal;font-feature-settings:normal;text-align:start;writing-mode:lr-tb;text-anchor:start;stroke-width:0.09243762"
           id="tspan1292">Q-network</tspan></text>
    </g>
    <rect
       ry="0.68504602"
       y="37.112576"
       x="36.050545"
       height="5.8874168"
       width="36.709873"
       id="rect2601-6-1-9-5"
       style="opacity:1;vector-effect:none;fill:#f7efd5;fill-opacity:1;stroke:#000000;stroke-width:0.34435627;stroke-linecap:butt;stroke-linejoin:miter;stroke-miterlimit:4;stroke-dasharray:none;stroke-dashoffset:0;stroke-opacity:1;paint-order:normal" />
    <text
       id="text2620-5-1-9-0"
       y="41.037525"
       x="39.238113"
       style="font-style:normal;font-weight:normal;font-size:2.81979418px;line-height:1.25;font-family:sans-serif;letter-spacing:0px;word-spacing:0px;fill:#000000;fill-opacity:1;stroke:none;stroke-width:0.07049485"
       xml:space="preserve"><tspan
         id="tspan1292-3"
         style="font-style:normal;font-variant:normal;font-weight:500;font-stretch:normal;font-size:2.81979418px;font-family:'CMU Serif';-inkscape-font-specification:'CMU Serif, Medium';font-variant-ligatures:normal;font-variant-caps:normal;font-variant-numeric:normal;font-feature-settings:normal;text-align:start;writing-mode:lr-tb;text-anchor:start;stroke-width:0.07049485"
         y="41.037525"
         x="39.238113"
         sodipodi:role="line">Loss</tspan></text>
    <path
       sodipodi:nodetypes="cc"
       inkscape:connector-curvature="0"
       id="path1448"
       d="m 51.251605,27.125 h 4.046312"
       style="opacity:1;vector-effect:none;fill:none;fill-opacity:1;stroke:#000000;stroke-width:0.26458332px;stroke-linecap:butt;stroke-linejoin:miter;stroke-miterlimit:4;stroke-dasharray:none;stroke-dashoffset:0;stroke-opacity:1;marker-end:url(#marker1478)" />
    <path
       sodipodi:nodetypes="cc"
       inkscape:connector-curvature="0"
       id="path1448-6"
       d="M 43.65625,30.066127 V 35.0625"
       style="opacity:1;vector-effect:none;fill:none;fill-opacity:1;stroke:#000000;stroke-width:0.26458332px;stroke-linecap:butt;stroke-linejoin:miter;stroke-miterlimit:4;stroke-dasharray:none;stroke-dashoffset:0;stroke-opacity:1;marker-end:url(#marker1478-0)" />
    <path
       sodipodi:nodetypes="cc"
       inkscape:connector-curvature="0"
       id="path1448-6-6"
       d="m 39.6875,37.058687 v -4.64202"
       style="opacity:1;vector-effect:none;fill:none;fill-opacity:1;stroke:#000000;stroke-width:0.26458332px;stroke-linecap:butt;stroke-linejoin:miter;stroke-miterlimit:4;stroke-dasharray:none;stroke-dashoffset:0;stroke-opacity:1;marker-end:url(#marker1478-0-7)" />
    <path
       sodipodi:nodetypes="cc"
       inkscape:connector-curvature="0"
       id="path1448-6-3"
       d="M 66.145833,32.416667 V 35.0625"
       style="opacity:1;vector-effect:none;fill:none;fill-opacity:1;stroke:#000000;stroke-width:0.26458332px;stroke-linecap:butt;stroke-linejoin:miter;stroke-miterlimit:4;stroke-dasharray:none;stroke-dashoffset:0;stroke-opacity:1;marker-end:url(#marker1478-0-75)" />
    <text
       xml:space="preserve"
       style="font-style:normal;font-weight:normal;font-size:1.75501013px;line-height:1.25;font-family:sans-serif;letter-spacing:0px;word-spacing:0px;fill:#000000;fill-opacity:1;stroke:none;stroke-width:0.04387525"
       x="64.469574"
       y="41.873169"
       id="text2620-5-1-0-8"><tspan
         sodipodi:role="line"
         id="tspan2618-0-2-0-9"
         x="64.469574"
         y="41.873169"
         style="font-style:normal;font-variant:normal;font-weight:500;font-stretch:normal;font-size:1.75501013px;font-family:'CMU Serif';-inkscape-font-specification:'CMU Serif, Medium';font-variant-ligatures:normal;font-variant-caps:normal;font-variant-numeric:normal;font-feature-settings:normal;text-align:start;writing-mode:lr-tb;text-anchor:start;stroke-width:0.04387525">Eq. (9.13)</tspan></text>
    <text
       id="text2620-5-1-7-9-6-9-6"
       y="92.051064"
       x="-51.424809"
       style="font-style:normal;font-weight:normal;font-size:2.9469223px;line-height:1.25;font-family:sans-serif;letter-spacing:0px;word-spacing:0px;fill:#000000;fill-opacity:1;stroke:none;stroke-width:0.07367305"
       xml:space="preserve"
       transform="rotate(-90)"><tspan
         id="tspan6473-6-2-1"
         style="font-style:normal;font-variant:normal;font-weight:500;font-stretch:normal;font-size:2.9469223px;font-family:'CMU Serif';-inkscape-font-specification:'CMU Serif, Medium';font-variant-ligatures:normal;font-variant-caps:normal;font-variant-numeric:normal;font-feature-settings:normal;text-align:start;writing-mode:lr-tb;text-anchor:start;stroke-width:0.07367305"
         y="92.051064"
         x="-51.424809"
         sodipodi:role="line">Pilot placement </tspan></text>
    <text
       xml:space="preserve"
       style="font-style:normal;font-weight:normal;font-size:1.75501013px;line-height:1.25;font-family:sans-serif;letter-spacing:0px;word-spacing:0px;fill:#000000;fill-opacity:1;stroke:none;stroke-width:0.04387525"
       x="72.806435"
       y="64.654434"
       id="text2620-5-1-0-8-5"><tspan
         sodipodi:role="line"
         id="tspan2618-0-2-0-9-1"
         x="72.806435"
         y="64.654434"
         style="font-style:normal;font-variant:normal;font-weight:500;font-stretch:normal;font-size:1.75501013px;font-family:'CMU Serif';-inkscape-font-specification:'CMU Serif, Medium';font-variant-ligatures:normal;font-variant-caps:normal;font-variant-numeric:normal;font-feature-settings:normal;text-align:start;writing-mode:lr-tb;text-anchor:start;stroke-width:0.04387525">Fig. 9.1</tspan></text>
    <g
       transform="matrix(0,-0.23891089,0.23891089,0,59.504719,63.22007)"
       ns1:version="0.10.0"
       ns1:texconverter="pdflatex"
       ns1:pdfconverter="pdf2svg"
       ns1:text="$F_{pos}$"
       ns1:preamble="C:\\Users\\jakob\\AppData\\Roaming\\inkscape\\extensions\\textext\\default_packages.tex"
       ns1:scale="0.831588954264"
       ns1:alignment="middle center"
       inkscapeversion="0.92.3"
       ns1:jacobian_sqrt="0.293366"
       id="g1797">
      <g
         id="g1795">
        <g
           style="fill:#000000;fill-opacity:1"
           id="g1785">
          <path
             inkscape:connector-curvature="0"
             style="stroke:none;stroke-width:0"
             d="m 3.015625,-3.234375 h 0.96875 c 0.75,0 0.828125,0.15625 0.828125,0.4375 0,0.078125 0,0.1875 -0.0625,0.5 C 4.71875,-2.25 4.71875,-2.21875 4.71875,-2.1875 c 0,0.078125 0.0625,0.109375 0.109375,0.109375 0.109375,0 0.109375,-0.03125 0.15625,-0.203125 L 5.53125,-4.453125 C 5.5625,-4.5625 5.5625,-4.578125 5.5625,-4.609375 5.5625,-4.625 5.546875,-4.71875 5.4375,-4.71875 5.34375,-4.71875 5.328125,-4.671875 5.296875,-4.5 5.078125,-3.734375 4.859375,-3.546875 4,-3.546875 H 3.09375 l 0.640625,-2.53125 C 3.828125,-6.4375 3.84375,-6.46875 4.28125,-6.46875 h 1.3125 c 1.21875,0 1.453125,0.328125 1.453125,1.09375 0,0.234375 0,0.265625 -0.03125,0.546875 C 7,-4.703125 7,-4.6875 7,-4.65625 c 0,0.046875 0.03125,0.125 0.125,0.125 0.109375,0 0.109375,-0.0625 0.125,-0.25 L 7.453125,-6.515625 C 7.484375,-6.78125 7.4375,-6.78125 7.1875,-6.78125 H 2.296875 c -0.1875,0 -0.296875,0 -0.296875,0.203125 0,0.109375 0.09375,0.109375 0.28125,0.109375 0.375,0 0.65625,0 0.65625,0.171875 0,0.046875 0,0.0625 -0.0625,0.25 L 1.5625,-0.78125 c -0.09375,0.390625 -0.109375,0.46875 -0.90625,0.46875 -0.171875,0 -0.28125,0 -0.28125,0.1875 C 0.375,0 0.5,0 0.53125,0 0.8125,0 1.5625,-0.03125 1.84375,-0.03125 2.171875,-0.03125 3,0 3.328125,0 3.421875,0 3.53125,0 3.53125,-0.1875 3.53125,-0.265625 3.484375,-0.296875 3.484375,-0.296875 3.453125,-0.3125 3.421875,-0.3125 3.203125,-0.3125 c -0.21875,0 -0.265625,0 -0.515625,-0.015625 -0.296875,-0.03125 -0.328125,-0.078125 -0.328125,-0.203125 0,-0.015625 0,-0.078125 0.046875,-0.21875 z m 0,0"
             transform="translate(148.712,134.765)"
             id="path1783" />
        </g>
        <g
           style="fill:#000000;fill-opacity:1"
           id="g1793">
          <path
             inkscape:connector-curvature="0"
             style="stroke:none;stroke-width:0"
             d="m 0.515625,0.84375 c -0.046875,0.203125 -0.0625,0.25 -0.328125,0.25 -0.09375,0 -0.1875,0 -0.1875,0.15625 0,0.078125 0.0625,0.109375 0.09375,0.109375 0.171875,0 0.40625,-0.03125 0.59375,-0.03125 0.234375,0 0.5,0.03125 0.734375,0.03125 0.0625,0 0.140625,-0.03125 0.140625,-0.15625 0,-0.109375 -0.09375,-0.109375 -0.1875,-0.109375 -0.15625,0 -0.34375,0 -0.34375,-0.078125 0,-0.03125 0.0625,-0.21875 0.078125,-0.3125 0.09375,-0.375 0.1875,-0.75 0.265625,-1.046875 0.078125,0.140625 0.296875,0.40625 0.71875,0.40625 0.84375,0 1.78125,-0.9375 1.78125,-1.96875 0,-0.8125 -0.5625,-1.171875 -1.03125,-1.171875 -0.4375,0 -0.8125,0.296875 -1,0.5 -0.109375,-0.40625 -0.5,-0.5 -0.71875,-0.5 -0.265625,0 -0.4375,0.1875 -0.546875,0.375 -0.140625,0.234375 -0.25,0.65625 -0.25,0.703125 0,0.078125 0.09375,0.078125 0.125,0.078125 0.09375,0 0.09375,-0.015625 0.140625,-0.203125 0.109375,-0.40625 0.25,-0.75 0.515625,-0.75 0.1875,0 0.234375,0.15625 0.234375,0.34375 0,0.078125 -0.015625,0.15625 -0.03125,0.203125 z M 1.84375,-2.234375 C 2.25,-2.78125 2.59375,-2.875 2.8125,-2.875 c 0.28125,0 0.515625,0.203125 0.515625,0.671875 0,0.28125 -0.15625,1 -0.359375,1.40625 -0.1875,0.34375 -0.515625,0.671875 -0.875,0.671875 -0.5,0 -0.625,-0.53125 -0.625,-0.609375 0,-0.03125 0.015625,-0.078125 0.015625,-0.109375 z m 0,0"
             transform="translate(155.119,136.259)"
             id="path1787" />
          <path
             inkscape:connector-curvature="0"
             style="stroke:none;stroke-width:0"
             d="m 3.703125,-1.859375 c 0,-0.765625 -0.578125,-1.21875 -1.265625,-1.21875 -1.03125,0 -2,0.96875 -2,1.921875 0,0.703125 0.5,1.21875 1.265625,1.21875 1,0 2,-0.90625 2,-1.921875 z m -2,1.734375 c -0.34375,0 -0.6875,-0.21875 -0.6875,-0.78125 0,-0.28125 0.125,-0.96875 0.40625,-1.359375 C 1.71875,-2.703125 2.125,-2.875 2.4375,-2.875 c 0.375,0 0.6875,0.25 0.6875,0.765625 C 3.125,-1.9375 3.046875,-1.25 2.734375,-0.765625 2.46875,-0.34375 2.0625,-0.125 1.703125,-0.125 Z m 0,0"
             transform="translate(159.22587,136.259)"
             id="path1789" />
          <path
             inkscape:connector-curvature="0"
             style="stroke:none;stroke-width:0"
             d="m 3,-2.625 c -0.171875,0.046875 -0.296875,0.1875 -0.296875,0.328125 0,0.171875 0.140625,0.234375 0.234375,0.234375 0.078125,0 0.34375,-0.046875 0.34375,-0.40625 0,-0.453125 -0.5,-0.609375 -0.9375,-0.609375 -1.078125,0 -1.28125,0.8125 -1.28125,1.015625 0,0.265625 0.15625,0.4375 0.25,0.515625 0.171875,0.140625 0.296875,0.171875 0.78125,0.25 0.15625,0.03125 0.59375,0.109375 0.59375,0.453125 0,0.125 -0.078125,0.390625 -0.359375,0.5625 C 2.046875,-0.125 1.703125,-0.125 1.625,-0.125 1.34375,-0.125 0.953125,-0.1875 0.78125,-0.421875 1.015625,-0.453125 1.171875,-0.625 1.171875,-0.8125 c 0,-0.171875 -0.125,-0.265625 -0.265625,-0.265625 -0.203125,0 -0.40625,0.171875 -0.40625,0.46875 0,0.421875 0.4375,0.671875 1.109375,0.671875 1.296875,0 1.53125,-0.875 1.53125,-1.140625 0,-0.640625 -0.703125,-0.765625 -0.96875,-0.8125 -0.0625,-0.015625 -0.234375,-0.046875 -0.28125,-0.0625 -0.25,-0.046875 -0.375,-0.1875 -0.375,-0.34375 0,-0.15625 0.125,-0.34375 0.28125,-0.453125 0.1875,-0.109375 0.421875,-0.125 0.546875,-0.125 0.140625,0 0.5,0.015625 0.65625,0.25 z m 0,0"
             transform="translate(163.1584,136.259)"
             id="path1791" />
        </g>
      </g>
    </g>
    <g
       id="g5643"
       ns1:jacobian_sqrt="0.293366"
       inkscapeversion="0.92.3"
       ns1:alignment="middle center"
       ns1:scale="0.831588954264"
       ns1:preamble="C:\\Users\\jakob\\AppData\\Roaming\\inkscape\\extensions\\textext\\default_packages.tex"
       ns1:text="$\\mathbf{\\widetilde{H_j}}$"
       ns1:pdfconverter="pdf2svg"
       ns1:texconverter="pdflatex"
       ns1:version="0.10.0"
       transform="matrix(0.293366,0,0,0.293366,-23.485202,-8.082218)">
      <g
         id="g5641">
        <g
           id="g5631"
           style="fill:#000000;fill-opacity:1">
          <path
             id="path5629"
             transform="translate(149.853,132.274)"
             d="M 9.859375,-7.484375 C 9.59375,-7.34375 8.140625,-6.59375 6.875,-6.59375 c -0.734375,0 -1.171875,-0.1875 -1.859375,-0.484375 -0.484375,-0.203125 -0.96875,-0.40625 -1.65625,-0.40625 -1.171875,0 -2.328125,0.5625 -3.359375,1.0625 l 0.09375,0.203125 c 0.28125,-0.140625 1.734375,-0.875 3,-0.875 0.71875,0 1.15625,0.171875 1.84375,0.46875 0.484375,0.203125 0.96875,0.40625 1.65625,0.40625 1.171875,0 2.328125,-0.5625 3.359375,-1.0625 z m 0,0"
             style="stroke:none;stroke-width:0"
             inkscape:connector-curvature="0" />
        </g>
        <g
           id="g5635"
           style="fill:#000000;fill-opacity:1">
          <path
             id="path5633"
             transform="translate(148.712,134.82)"
             d="M 7.5,-6.375 H 8.578125 V -6.84375 C 8.1875,-6.8125 7.21875,-6.8125 6.78125,-6.8125 c -0.421875,0 -1.390625,0 -1.78125,-0.03125 V -6.375 h 1.078125 v 2.59375 H 2.875 V -6.375 h 1.078125 v -0.46875 c -0.375,0.03125 -1.34375,0.03125 -1.78125,0.03125 -0.421875,0 -1.40625,0 -1.78125,-0.03125 V -6.375 H 1.46875 v 5.90625 H 0.390625 V 0 c 0.375,-0.03125 1.359375,-0.03125 1.78125,-0.03125 0.4375,0 1.40625,0 1.78125,0.03125 V -0.46875 H 2.875 V -3.3125 h 3.203125 v 2.84375 H 5 V 0 c 0.390625,-0.03125 1.359375,-0.03125 1.78125,-0.03125 0.4375,0 1.40625,0 1.796875,0.03125 V -0.46875 H 7.5 Z m 0,0"
             style="stroke:none;stroke-width:0"
             inkscape:connector-curvature="0" />
        </g>
        <g
           id="g5639"
           style="fill:#000000;fill-opacity:1">
          <path
             id="path5637"
             transform="translate(157.679,136.314)"
             d="m 2.125,-4.265625 c 0,-0.34375 -0.28125,-0.578125 -0.578125,-0.578125 -0.328125,0 -0.5625,0.265625 -0.5625,0.5625 0,0.34375 0.265625,0.578125 0.5625,0.578125 0.328125,0 0.578125,-0.28125 0.578125,-0.5625 z m -1.359375,1.1875 V -2.6875 c 0.453125,0 0.515625,0 0.515625,0.28125 V 0.25 c 0,0.46875 -0.203125,0.828125 -0.578125,0.828125 C 0.6875,1.078125 0.46875,1.0625 0.46875,1.03125 0.46875,1.03125 0.484375,1 0.5,0.984375 0.515625,0.96875 0.578125,0.859375 0.578125,0.703125 0.578125,0.421875 0.375,0.21875 0.109375,0.21875 c -0.296875,0 -0.5,0.21875 -0.5,0.484375 0,0.484375 0.515625,0.6875 1.109375,0.6875 0.625,0 1.40625,-0.328125 1.40625,-1.125 v -3.40625 z m 0,0"
             style="stroke:none;stroke-width:0"
             inkscape:connector-curvature="0" />
        </g>
      </g>
    </g>
    <g
       transform="matrix(0.293366,0,0,0.293366,-28.626143,5.61942)"
       ns1:version="0.10.0"
       ns1:texconverter="pdflatex"
       ns1:pdfconverter="pdf2svg"
       ns1:text="$r(\\mathbf{\\widetilde{H_j}}, \\mathbf{H_j})$"
       ns1:preamble="C:\\Users\\jakob\\AppData\\Roaming\\inkscape\\extensions\\textext\\default_packages.tex"
       ns1:scale="0.831588954264"
       ns1:alignment="middle center"
       inkscapeversion="0.92.3"
       ns1:jacobian_sqrt="0.293366"
       id="g5925">
      <g
         id="g5923">
        <g
           style="fill:#000000;fill-opacity:1"
           id="g5889">
          <path
             inkscape:connector-curvature="0"
             style="stroke:none;stroke-width:0"
             d="m 0.875,-0.59375 c -0.03125,0.15625 -0.09375,0.390625 -0.09375,0.4375 0,0.171875 0.140625,0.265625 0.296875,0.265625 0.125,0 0.296875,-0.078125 0.375,-0.28125 C 1.46875,-0.203125 1.796875,-1.5625 1.84375,-1.75 c 0.078125,-0.328125 0.265625,-1.015625 0.3125,-1.296875 0.046875,-0.125 0.328125,-0.59375 0.5625,-0.8125 0.078125,-0.0625 0.375,-0.328125 0.796875,-0.328125 0.265625,0 0.40625,0.125 0.421875,0.125 -0.296875,0.046875 -0.515625,0.28125 -0.515625,0.546875 0,0.15625 0.109375,0.34375 0.375,0.34375 0.265625,0 0.546875,-0.234375 0.546875,-0.59375 0,-0.34375 -0.3125,-0.640625 -0.828125,-0.640625 C 2.875,-4.40625 2.4375,-3.921875 2.25,-3.640625 2.15625,-4.09375 1.796875,-4.40625 1.328125,-4.40625 0.875,-4.40625 0.6875,-4.015625 0.59375,-3.84375 0.421875,-3.5 0.296875,-2.90625 0.296875,-2.875 c 0,0.109375 0.09375,0.109375 0.109375,0.109375 0.109375,0 0.109375,-0.015625 0.171875,-0.234375 0.171875,-0.703125 0.375,-1.1875 0.734375,-1.1875 0.15625,0 0.296875,0.078125 0.296875,0.453125 0,0.21875 -0.03125,0.328125 -0.15625,0.84375 z m 0,0"
             transform="translate(148.712,134.82)"
             id="path5887" />
        </g>
        <g
           style="fill:#000000;fill-opacity:1"
           id="g5893">
          <path
             inkscape:connector-curvature="0"
             style="stroke:none;stroke-width:0"
             d="m 3.296875,2.390625 c 0,-0.03125 0,-0.046875 -0.171875,-0.21875 C 1.890625,0.921875 1.5625,-0.96875 1.5625,-2.5 c 0,-1.734375 0.375,-3.46875 1.609375,-4.703125 0.125,-0.125 0.125,-0.140625 0.125,-0.171875 0,-0.078125 -0.03125,-0.109375 -0.09375,-0.109375 -0.109375,0 -1,0.6875 -1.59375,1.953125 -0.5,1.09375 -0.625,2.203125 -0.625,3.03125 0,0.78125 0.109375,1.984375 0.65625,3.125 C 2.25,1.84375 3.09375,2.5 3.203125,2.5 c 0.0625,0 0.09375,-0.03125 0.09375,-0.109375 z m 0,0"
             transform="translate(153.484,134.82)"
             id="path5891" />
        </g>
        <g
           style="fill:#000000;fill-opacity:1"
           id="g5897">
          <path
             inkscape:connector-curvature="0"
             style="stroke:none;stroke-width:0"
             d="M 9.859375,-7.484375 C 9.59375,-7.34375 8.140625,-6.59375 6.875,-6.59375 c -0.734375,0 -1.171875,-0.1875 -1.859375,-0.484375 -0.484375,-0.203125 -0.96875,-0.40625 -1.65625,-0.40625 -1.171875,0 -2.328125,0.5625 -3.359375,1.0625 l 0.09375,0.203125 c 0.28125,-0.140625 1.734375,-0.875 3,-0.875 0.71875,0 1.15625,0.171875 1.84375,0.46875 0.484375,0.203125 0.96875,0.40625 1.65625,0.40625 1.171875,0 2.328125,-0.5625 3.359375,-1.0625 z m 0,0"
             transform="translate(158.499,132.274)"
             id="path5895" />
        </g>
        <g
           style="fill:#000000;fill-opacity:1"
           id="g5901">
          <path
             inkscape:connector-curvature="0"
             style="stroke:none;stroke-width:0"
             d="M 7.5,-6.375 H 8.578125 V -6.84375 C 8.1875,-6.8125 7.21875,-6.8125 6.78125,-6.8125 c -0.421875,0 -1.390625,0 -1.78125,-0.03125 V -6.375 h 1.078125 v 2.59375 H 2.875 V -6.375 h 1.078125 v -0.46875 c -0.375,0.03125 -1.34375,0.03125 -1.78125,0.03125 -0.421875,0 -1.40625,0 -1.78125,-0.03125 V -6.375 H 1.46875 v 5.90625 H 0.390625 V 0 c 0.375,-0.03125 1.359375,-0.03125 1.78125,-0.03125 0.4375,0 1.40625,0 1.78125,0.03125 V -0.46875 H 2.875 V -3.3125 h 3.203125 v 2.84375 H 5 V 0 c 0.390625,-0.03125 1.359375,-0.03125 1.78125,-0.03125 0.4375,0 1.40625,0 1.796875,0.03125 V -0.46875 H 7.5 Z m 0,0"
             transform="translate(157.358,134.82)"
             id="path5899" />
        </g>
        <g
           style="fill:#000000;fill-opacity:1"
           id="g5905">
          <path
             inkscape:connector-curvature="0"
             style="stroke:none;stroke-width:0"
             d="m 2.125,-4.265625 c 0,-0.34375 -0.28125,-0.578125 -0.578125,-0.578125 -0.328125,0 -0.5625,0.265625 -0.5625,0.5625 0,0.34375 0.265625,0.578125 0.5625,0.578125 0.328125,0 0.578125,-0.28125 0.578125,-0.5625 z m -1.359375,1.1875 V -2.6875 c 0.453125,0 0.515625,0 0.515625,0.28125 V 0.25 c 0,0.46875 -0.203125,0.828125 -0.578125,0.828125 C 0.6875,1.078125 0.46875,1.0625 0.46875,1.03125 0.46875,1.03125 0.484375,1 0.5,0.984375 0.515625,0.96875 0.578125,0.859375 0.578125,0.703125 0.578125,0.421875 0.375,0.21875 0.109375,0.21875 c -0.296875,0 -0.5,0.21875 -0.5,0.484375 0,0.484375 0.515625,0.6875 1.109375,0.6875 0.625,0 1.40625,-0.328125 1.40625,-1.125 v -3.40625 z m 0,0"
             transform="translate(166.324,136.314)"
             id="path5903" />
        </g>
        <g
           style="fill:#000000;fill-opacity:1"
           id="g5909">
          <path
             inkscape:connector-curvature="0"
             style="stroke:none;stroke-width:0"
             d="m 2.03125,-0.015625 c 0,-0.65625 -0.25,-1.046875 -0.640625,-1.046875 -0.328125,0 -0.53125,0.25 -0.53125,0.53125 C 0.859375,-0.265625 1.0625,0 1.390625,0 1.5,0 1.640625,-0.046875 1.734375,-0.125 1.765625,-0.15625 1.78125,-0.15625 1.78125,-0.15625 c 0.015625,0 0.015625,0 0.015625,0.140625 0,0.75 -0.34375,1.34375 -0.671875,1.671875 -0.109375,0.109375 -0.109375,0.125 -0.109375,0.15625 0,0.078125 0.046875,0.109375 0.09375,0.109375 0.109375,0 0.921875,-0.765625 0.921875,-1.9375 z m 0,0"
             transform="translate(169.602,134.82)"
             id="path5907" />
        </g>
        <g
           style="fill:#000000;fill-opacity:1"
           id="g5913">
          <path
             inkscape:connector-curvature="0"
             style="stroke:none;stroke-width:0"
             d="M 7.5,-6.375 H 8.578125 V -6.84375 C 8.1875,-6.8125 7.21875,-6.8125 6.78125,-6.8125 c -0.421875,0 -1.390625,0 -1.78125,-0.03125 V -6.375 h 1.078125 v 2.59375 H 2.875 V -6.375 h 1.078125 v -0.46875 c -0.375,0.03125 -1.34375,0.03125 -1.78125,0.03125 -0.421875,0 -1.40625,0 -1.78125,-0.03125 V -6.375 H 1.46875 v 5.90625 H 0.390625 V 0 c 0.375,-0.03125 1.359375,-0.03125 1.78125,-0.03125 0.4375,0 1.40625,0 1.78125,0.03125 V -0.46875 H 2.875 V -3.3125 h 3.203125 v 2.84375 H 5 V 0 c 0.390625,-0.03125 1.359375,-0.03125 1.78125,-0.03125 0.4375,0 1.40625,0 1.796875,0.03125 V -0.46875 H 7.5 Z m 0,0"
             transform="translate(174.03,134.82)"
             id="path5911" />
        </g>
        <g
           style="fill:#000000;fill-opacity:1"
           id="g5917">
          <path
             inkscape:connector-curvature="0"
             style="stroke:none;stroke-width:0"
             d="m 2.125,-4.265625 c 0,-0.34375 -0.28125,-0.578125 -0.578125,-0.578125 -0.328125,0 -0.5625,0.265625 -0.5625,0.5625 0,0.34375 0.265625,0.578125 0.5625,0.578125 0.328125,0 0.578125,-0.28125 0.578125,-0.5625 z m -1.359375,1.1875 V -2.6875 c 0.453125,0 0.515625,0 0.515625,0.28125 V 0.25 c 0,0.46875 -0.203125,0.828125 -0.578125,0.828125 C 0.6875,1.078125 0.46875,1.0625 0.46875,1.03125 0.46875,1.03125 0.484375,1 0.5,0.984375 0.515625,0.96875 0.578125,0.859375 0.578125,0.703125 0.578125,0.421875 0.375,0.21875 0.109375,0.21875 c -0.296875,0 -0.5,0.21875 -0.5,0.484375 0,0.484375 0.515625,0.6875 1.109375,0.6875 0.625,0 1.40625,-0.328125 1.40625,-1.125 v -3.40625 z m 0,0"
             transform="translate(182.997,136.314)"
             id="path5915" />
        </g>
        <g
           style="fill:#000000;fill-opacity:1"
           id="g5921">
          <path
             inkscape:connector-curvature="0"
             style="stroke:none;stroke-width:0"
             d="m 2.875,-2.5 c 0,-0.765625 -0.109375,-1.96875 -0.65625,-3.109375 -0.59375,-1.21875 -1.453125,-1.875 -1.546875,-1.875 -0.0625,0 -0.109375,0.046875 -0.109375,0.109375 0,0.03125 0,0.046875 0.1875,0.234375 0.984375,0.984375 1.546875,2.5625 1.546875,4.640625 0,1.71875 -0.359375,3.46875 -1.59375,4.71875 C 0.5625,2.34375 0.5625,2.359375 0.5625,2.390625 0.5625,2.453125 0.609375,2.5 0.671875,2.5 0.765625,2.5 1.671875,1.8125 2.25,0.546875 2.765625,-0.546875 2.875,-1.65625 2.875,-2.5 Z m 0,0"
             transform="translate(186.275,134.82)"
             id="path5919" />
        </g>
      </g>
    </g>
    <g
       id="g6218"
       ns1:jacobian_sqrt="0.208817"
       inkscapeversion="0.92.3"
       ns1:alignment="middle center"
       ns1:scale="0.59192123387"
       ns1:preamble="C:\\Users\\jakob\\AppData\\Roaming\\inkscape\\extensions\\textext\\default_packages.tex"
       ns1:text="$\\arg \\text{max} \\; Q(\\mathbf{\\widetilde{H_j}}, a | \\theta_Q)$"
       ns1:pdfconverter="pdf2svg"
       ns1:texconverter="pdflatex"
       ns1:version="0.10.0"
       transform="matrix(0.208817,0,0,0.208817,14.302282,-5.232779)">
      <g
         id="surface1">
        <g
           id="g6163"
           style="fill:#000000;fill-opacity:1">
          <path
             id="path6157"
             transform="translate(148.712,134.82)"
             d="m 3.3125,-0.75 c 0.046875,0.390625 0.3125,0.8125 0.78125,0.8125 0.21875,0 0.828125,-0.140625 0.828125,-0.953125 v -0.5625 h -0.25 v 0.5625 c 0,0.578125 -0.25,0.640625 -0.359375,0.640625 -0.328125,0 -0.375,-0.453125 -0.375,-0.5 v -1.984375 c 0,-0.421875 0,-0.8125 -0.359375,-1.1875 C 3.1875,-4.3125 2.6875,-4.46875 2.21875,-4.46875 c -0.828125,0 -1.515625,0.46875 -1.515625,1.125 0,0.296875 0.203125,0.46875 0.46875,0.46875 0.28125,0 0.453125,-0.203125 0.453125,-0.453125 0,-0.125 -0.046875,-0.453125 -0.515625,-0.453125 C 1.390625,-4.140625 1.875,-4.25 2.1875,-4.25 c 0.5,0 1.0625,0.390625 1.0625,1.28125 v 0.359375 c -0.515625,0.03125 -1.203125,0.0625 -1.828125,0.359375 -0.75,0.34375 -1,0.859375 -1,1.296875 0,0.8125 0.96875,1.0625 1.59375,1.0625 0.65625,0 1.109375,-0.40625 1.296875,-0.859375 z M 3.25,-2.390625 v 1 c 0,0.9375 -0.71875,1.28125 -1.171875,1.28125 -0.484375,0 -0.890625,-0.34375 -0.890625,-0.84375 0,-0.546875 0.421875,-1.375 2.0625,-1.4375 z m 0,0"
             style="stroke:none;stroke-width:0"
             inkscape:connector-curvature="0" />
          <path
             id="path6159"
             transform="translate(153.6933,134.82)"
             d="M 1.671875,-3.3125 V -4.40625 L 0.28125,-4.296875 v 0.3125 c 0.703125,0 0.78125,0.0625 0.78125,0.5625 V -0.75 c 0,0.4375 -0.109375,0.4375 -0.78125,0.4375 V 0 c 0.390625,-0.015625 0.859375,-0.03125 1.140625,-0.03125 0.390625,0 0.859375,0 1.265625,0.03125 V -0.3125 H 2.46875 c -0.734375,0 -0.75,-0.109375 -0.75,-0.46875 V -2.3125 c 0,-0.984375 0.421875,-1.875 1.171875,-1.875 0.0625,0 0.09375,0 0.109375,0.015625 -0.03125,0 -0.234375,0.125 -0.234375,0.390625 0,0.265625 0.21875,0.421875 0.4375,0.421875 0.171875,0 0.421875,-0.125 0.421875,-0.4375 0,-0.3125 -0.3125,-0.609375 -0.734375,-0.609375 -0.734375,0 -1.09375,0.671875 -1.21875,1.09375 z m 0,0"
             style="stroke:none;stroke-width:0"
             inkscape:connector-curvature="0" />
          <path
             id="path6161"
             transform="translate(157.59565,134.82)"
             d="m 2.21875,-1.71875 c -0.875,0 -0.875,-1 -0.875,-1.21875 0,-0.265625 0.015625,-0.59375 0.15625,-0.84375 0.078125,-0.109375 0.3125,-0.390625 0.71875,-0.390625 0.859375,0 0.859375,0.984375 0.859375,1.21875 0,0.265625 0,0.59375 -0.15625,0.84375 C 2.84375,-2 2.609375,-1.71875 2.21875,-1.71875 Z M 1.0625,-1.328125 c 0,-0.03125 0,-0.265625 0.15625,-0.46875 0.390625,0.28125 0.8125,0.3125 1,0.3125 0.921875,0 1.609375,-0.6875 1.609375,-1.453125 0,-0.375 -0.15625,-0.734375 -0.40625,-0.96875 C 3.78125,-4.25 4.140625,-4.296875 4.3125,-4.296875 c 0.03125,0 0.078125,0 0.109375,0.015625 C 4.3125,-4.25 4.25,-4.140625 4.25,-4.015625 c 0,0.171875 0.140625,0.28125 0.296875,0.28125 0.09375,0 0.28125,-0.0625 0.28125,-0.296875 0,-0.171875 -0.109375,-0.484375 -0.5,-0.484375 -0.203125,0 -0.640625,0.0625 -1.0625,0.46875 C 2.84375,-4.375 2.4375,-4.40625 2.21875,-4.40625 c -0.9375,0 -1.625,0.6875 -1.625,1.453125 0,0.4375 0.21875,0.8125 0.46875,1.03125 -0.125,0.140625 -0.3125,0.46875 -0.3125,0.828125 0,0.3125 0.140625,0.6875 0.453125,0.890625 -0.609375,0.15625 -0.921875,0.59375 -0.921875,0.984375 0,0.71875 0.984375,1.265625 2.203125,1.265625 1.171875,0 2.203125,-0.5 2.203125,-1.28125 0,-0.34375 -0.125,-0.859375 -0.640625,-1.140625 -0.53125,-0.265625 -1.109375,-0.265625 -1.71875,-0.265625 -0.25,0 -0.671875,0 -0.75,-0.015625 C 1.265625,-0.703125 1.0625,-1 1.0625,-1.328125 Z M 2.5,1.828125 c -1.015625,0 -1.703125,-0.515625 -1.703125,-1.046875 0,-0.453125 0.375,-0.828125 0.8125,-0.84375 h 0.59375 c 0.859375,0 1.96875,0 1.96875,0.84375 0,0.546875 -0.703125,1.046875 -1.671875,1.046875 z m 0,0"
             style="stroke:none;stroke-width:0"
             inkscape:connector-curvature="0" />
        </g>
        <g
           id="g6171"
           style="fill:#000000;fill-opacity:1">
          <path
             id="path6165"
             transform="translate(164.38018,134.82)"
             d="M 1.09375,-3.421875 V -0.75 c 0,0.4375 -0.109375,0.4375 -0.78125,0.4375 V 0 c 0.359375,-0.015625 0.859375,-0.03125 1.140625,-0.03125 0.25,0 0.765625,0.015625 1.109375,0.03125 v -0.3125 c -0.671875,0 -0.78125,0 -0.78125,-0.4375 V -2.59375 C 1.78125,-3.625 2.5,-4.1875 3.125,-4.1875 c 0.640625,0 0.75,0.53125 0.75,1.109375 V -0.75 c 0,0.4375 -0.109375,0.4375 -0.78125,0.4375 V 0 c 0.34375,-0.015625 0.859375,-0.03125 1.125,-0.03125 0.25,0 0.78125,0.015625 1.109375,0.03125 v -0.3125 c -0.65625,0 -0.765625,0 -0.765625,-0.4375 v -1.84375 c 0,-1.03125 0.703125,-1.59375 1.34375,-1.59375 0.625,0 0.734375,0.53125 0.734375,1.109375 V -0.75 c 0,0.4375 -0.109375,0.4375 -0.78125,0.4375 V 0 c 0.34375,-0.015625 0.859375,-0.03125 1.125,-0.03125 0.265625,0 0.78125,0.015625 1.125,0.03125 v -0.3125 c -0.515625,0 -0.765625,0 -0.78125,-0.296875 v -1.90625 c 0,-0.859375 0,-1.15625 -0.3125,-1.515625 -0.140625,-0.171875 -0.46875,-0.375 -1.046875,-0.375 -0.828125,0 -1.28125,0.59375 -1.4375,0.984375 C 4.390625,-4.296875 3.65625,-4.40625 3.203125,-4.40625 2.46875,-4.40625 2,-3.984375 1.71875,-3.359375 V -4.40625 L 0.3125,-4.296875 v 0.3125 c 0.703125,0 0.78125,0.0625 0.78125,0.5625 z m 0,0"
             style="stroke:none;stroke-width:0"
             inkscape:connector-curvature="0" />
          <path
             id="path6167"
             transform="translate(172.68202,134.82)"
             d="m 3.3125,-0.75 c 0.046875,0.390625 0.3125,0.8125 0.78125,0.8125 0.21875,0 0.828125,-0.140625 0.828125,-0.953125 v -0.5625 h -0.25 v 0.5625 c 0,0.578125 -0.25,0.640625 -0.359375,0.640625 -0.328125,0 -0.375,-0.453125 -0.375,-0.5 v -1.984375 c 0,-0.421875 0,-0.8125 -0.359375,-1.1875 C 3.1875,-4.3125 2.6875,-4.46875 2.21875,-4.46875 c -0.828125,0 -1.515625,0.46875 -1.515625,1.125 0,0.296875 0.203125,0.46875 0.46875,0.46875 0.28125,0 0.453125,-0.203125 0.453125,-0.453125 0,-0.125 -0.046875,-0.453125 -0.515625,-0.453125 C 1.390625,-4.140625 1.875,-4.25 2.1875,-4.25 c 0.5,0 1.0625,0.390625 1.0625,1.28125 v 0.359375 c -0.515625,0.03125 -1.203125,0.0625 -1.828125,0.359375 -0.75,0.34375 -1,0.859375 -1,1.296875 0,0.8125 0.96875,1.0625 1.59375,1.0625 0.65625,0 1.109375,-0.40625 1.296875,-0.859375 z M 3.25,-2.390625 v 1 c 0,0.9375 -0.71875,1.28125 -1.171875,1.28125 -0.484375,0 -0.890625,-0.34375 -0.890625,-0.84375 0,-0.546875 0.421875,-1.375 2.0625,-1.4375 z m 0,0"
             style="stroke:none;stroke-width:0"
             inkscape:connector-curvature="0" />
          <path
             id="path6169"
             transform="translate(177.66332,134.82)"
             d="M 2.859375,-2.34375 C 3.15625,-2.71875 3.53125,-3.203125 3.78125,-3.46875 4.09375,-3.828125 4.5,-3.984375 4.96875,-3.984375 v -0.3125 c -0.265625,0.015625 -0.5625,0.03125 -0.828125,0.03125 -0.296875,0 -0.828125,-0.015625 -0.953125,-0.03125 v 0.3125 c 0.21875,0.015625 0.296875,0.140625 0.296875,0.3125 0,0.15625 -0.109375,0.28125 -0.15625,0.34375 L 2.71875,-2.546875 1.9375,-3.5625 C 1.84375,-3.65625 1.84375,-3.671875 1.84375,-3.734375 c 0,-0.15625 0.15625,-0.25 0.34375,-0.25 v -0.3125 c -0.25,0.015625 -0.90625,0.03125 -1.078125,0.03125 -0.203125,0 -0.671875,-0.015625 -0.9375,-0.03125 v 0.3125 c 0.703125,0 0.703125,0 1.171875,0.609375 l 0.984375,1.28125 -0.9375,1.1875 C 0.921875,-0.328125 0.328125,-0.3125 0.125,-0.3125 V 0 c 0.25,-0.015625 0.5625,-0.03125 0.828125,-0.03125 0.28125,0 0.703125,0.015625 0.9375,0.03125 v -0.3125 c -0.21875,-0.03125 -0.28125,-0.15625 -0.28125,-0.3125 0,-0.21875 0.28125,-0.546875 0.890625,-1.265625 l 0.765625,1 C 3.34375,-0.78125 3.46875,-0.625 3.46875,-0.5625 c 0,0.09375 -0.09375,0.25 -0.359375,0.25 V 0 C 3.40625,-0.015625 3.96875,-0.03125 4.1875,-0.03125 c 0.265625,0 0.65625,0.015625 0.953125,0.03125 v -0.3125 c -0.53125,0 -0.71875,-0.015625 -0.9375,-0.3125 z m 0,0"
             style="stroke:none;stroke-width:0"
             inkscape:connector-curvature="0" />
        </g>
        <g
           id="g6175"
           style="fill:#000000;fill-opacity:1">
          <path
             id="path6173"
             transform="translate(185.685,134.82)"
             d="M 4.359375,-0.0625 C 5.90625,-0.640625 7.375,-2.421875 7.375,-4.34375 c 0,-1.609375 -1.0625,-2.6875 -2.546875,-2.6875 -2.140625,0 -4.34375,2.265625 -4.34375,4.59375 0,1.65625 1.125,2.65625 2.5625,2.65625 0.25,0 0.578125,-0.046875 0.96875,-0.15625 -0.03125,0.625 -0.03125,0.640625 -0.03125,0.78125 0,0.3125 0,1.09375 0.828125,1.09375 1.171875,0 1.65625,-1.828125 1.65625,-1.9375 0,-0.0625 -0.0625,-0.09375 -0.109375,-0.09375 -0.078125,0 -0.09375,0.046875 -0.125,0.109375 C 6,0.71875 5.421875,0.96875 5.078125,0.96875 c -0.46875,0 -0.609375,-0.265625 -0.71875,-1.03125 z m -1.875,-0.078125 c -0.78125,-0.3125 -1.125,-1.078125 -1.125,-1.984375 0,-0.6875 0.265625,-2.109375 1.015625,-3.171875 C 3.109375,-6.3125 4.046875,-6.78125 4.78125,-6.78125 5.765625,-6.78125 6.5,-6 6.5,-4.671875 c 0,1 -0.515625,3.34375 -2.1875,4.265625 -0.046875,-0.34375 -0.140625,-1.0625 -0.875,-1.0625 -0.53125,0 -1.015625,0.484375 -1.015625,1.015625 0,0.1875 0.0625,0.296875 0.0625,0.3125 z M 3.09375,-0.03125 c -0.140625,0 -0.453125,0 -0.453125,-0.421875 0,-0.40625 0.375,-0.796875 0.796875,-0.796875 0.421875,0 0.609375,0.234375 0.609375,0.84375 0,0.140625 -0.015625,0.15625 -0.109375,0.203125 C 3.671875,-0.09375 3.375,-0.03125 3.09375,-0.03125 Z m 0,0"
             style="stroke:none;stroke-width:0"
             inkscape:connector-curvature="0" />
        </g>
        <g
           id="g6179"
           style="fill:#000000;fill-opacity:1">
          <path
             id="path6177"
             transform="translate(193.561,134.82)"
             d="m 3.296875,2.390625 c 0,-0.03125 0,-0.046875 -0.171875,-0.21875 C 1.890625,0.921875 1.5625,-0.96875 1.5625,-2.5 c 0,-1.734375 0.375,-3.46875 1.609375,-4.703125 0.125,-0.125 0.125,-0.140625 0.125,-0.171875 0,-0.078125 -0.03125,-0.109375 -0.09375,-0.109375 -0.109375,0 -1,0.6875 -1.59375,1.953125 -0.5,1.09375 -0.625,2.203125 -0.625,3.03125 0,0.78125 0.109375,1.984375 0.65625,3.125 C 2.25,1.84375 3.09375,2.5 3.203125,2.5 c 0.0625,0 0.09375,-0.03125 0.09375,-0.109375 z m 0,0"
             style="stroke:none;stroke-width:0"
             inkscape:connector-curvature="0" />
        </g>
        <g
           id="g6183"
           style="fill:#000000;fill-opacity:1">
          <path
             id="path6181"
             transform="translate(198.576,132.274)"
             d="M 9.859375,-7.484375 C 9.59375,-7.34375 8.140625,-6.59375 6.875,-6.59375 c -0.734375,0 -1.171875,-0.1875 -1.859375,-0.484375 -0.484375,-0.203125 -0.96875,-0.40625 -1.65625,-0.40625 -1.171875,0 -2.328125,0.5625 -3.359375,1.0625 l 0.09375,0.203125 c 0.28125,-0.140625 1.734375,-0.875 3,-0.875 0.71875,0 1.15625,0.171875 1.84375,0.46875 0.484375,0.203125 0.96875,0.40625 1.65625,0.40625 1.171875,0 2.328125,-0.5625 3.359375,-1.0625 z m 0,0"
             style="stroke:none;stroke-width:0"
             inkscape:connector-curvature="0" />
        </g>
        <g
           id="g6187"
           style="fill:#000000;fill-opacity:1">
          <path
             id="path6185"
             transform="translate(197.435,134.82)"
             d="M 7.5,-6.375 H 8.578125 V -6.84375 C 8.1875,-6.8125 7.21875,-6.8125 6.78125,-6.8125 c -0.421875,0 -1.390625,0 -1.78125,-0.03125 V -6.375 h 1.078125 v 2.59375 H 2.875 V -6.375 h 1.078125 v -0.46875 c -0.375,0.03125 -1.34375,0.03125 -1.78125,0.03125 -0.421875,0 -1.40625,0 -1.78125,-0.03125 V -6.375 H 1.46875 v 5.90625 H 0.390625 V 0 c 0.375,-0.03125 1.359375,-0.03125 1.78125,-0.03125 0.4375,0 1.40625,0 1.78125,0.03125 V -0.46875 H 2.875 V -3.3125 h 3.203125 v 2.84375 H 5 V 0 c 0.390625,-0.03125 1.359375,-0.03125 1.78125,-0.03125 0.4375,0 1.40625,0 1.796875,0.03125 V -0.46875 H 7.5 Z m 0,0"
             style="stroke:none;stroke-width:0"
             inkscape:connector-curvature="0" />
        </g>
        <g
           id="g6191"
           style="fill:#000000;fill-opacity:1">
          <path
             id="path6189"
             transform="translate(206.401,136.314)"
             d="m 2.125,-4.265625 c 0,-0.34375 -0.28125,-0.578125 -0.578125,-0.578125 -0.328125,0 -0.5625,0.265625 -0.5625,0.5625 0,0.34375 0.265625,0.578125 0.5625,0.578125 0.328125,0 0.578125,-0.28125 0.578125,-0.5625 z m -1.359375,1.1875 V -2.6875 c 0.453125,0 0.515625,0 0.515625,0.28125 V 0.25 c 0,0.46875 -0.203125,0.828125 -0.578125,0.828125 C 0.6875,1.078125 0.46875,1.0625 0.46875,1.03125 0.46875,1.03125 0.484375,1 0.5,0.984375 0.515625,0.96875 0.578125,0.859375 0.578125,0.703125 0.578125,0.421875 0.375,0.21875 0.109375,0.21875 c -0.296875,0 -0.5,0.21875 -0.5,0.484375 0,0.484375 0.515625,0.6875 1.109375,0.6875 0.625,0 1.40625,-0.328125 1.40625,-1.125 v -3.40625 z m 0,0"
             style="stroke:none;stroke-width:0"
             inkscape:connector-curvature="0" />
        </g>
        <g
           id="g6195"
           style="fill:#000000;fill-opacity:1">
          <path
             id="path6193"
             transform="translate(209.679,134.82)"
             d="m 2.03125,-0.015625 c 0,-0.65625 -0.25,-1.046875 -0.640625,-1.046875 -0.328125,0 -0.53125,0.25 -0.53125,0.53125 C 0.859375,-0.265625 1.0625,0 1.390625,0 1.5,0 1.640625,-0.046875 1.734375,-0.125 1.765625,-0.15625 1.78125,-0.15625 1.78125,-0.15625 c 0.015625,0 0.015625,0 0.015625,0.140625 0,0.75 -0.34375,1.34375 -0.671875,1.671875 -0.109375,0.109375 -0.109375,0.125 -0.109375,0.15625 0,0.078125 0.046875,0.109375 0.09375,0.109375 0.109375,0 0.921875,-0.765625 0.921875,-1.9375 z m 0,0"
             style="stroke:none;stroke-width:0"
             inkscape:connector-curvature="0" />
        </g>
        <g
           id="g6199"
           style="fill:#000000;fill-opacity:1">
          <path
             id="path6197"
             transform="translate(214.11036,134.82)"
             d="M 3.71875,-3.765625 C 3.53125,-4.140625 3.25,-4.40625 2.796875,-4.40625 c -1.15625,0 -2.390625,1.46875 -2.390625,2.921875 0,0.9375 0.546875,1.59375 1.3125,1.59375 0.203125,0 0.703125,-0.046875 1.296875,-0.75 0.078125,0.421875 0.4375,0.75 0.90625,0.75 0.359375,0 0.578125,-0.234375 0.75,-0.546875 0.15625,-0.359375 0.296875,-0.96875 0.296875,-0.984375 0,-0.109375 -0.09375,-0.109375 -0.125,-0.109375 -0.09375,0 -0.109375,0.046875 -0.140625,0.1875 -0.171875,0.640625 -0.34375,1.234375 -0.75,1.234375 -0.28125,0 -0.296875,-0.265625 -0.296875,-0.453125 0,-0.21875 0.015625,-0.3125 0.125,-0.75 C 3.890625,-1.71875 3.90625,-1.828125 4,-2.203125 L 4.359375,-3.59375 c 0.0625,-0.28125 0.0625,-0.296875 0.0625,-0.34375 0,-0.171875 -0.109375,-0.265625 -0.28125,-0.265625 -0.25,0 -0.390625,0.21875 -0.421875,0.4375 z M 3.078125,-1.1875 C 3.015625,-1 3.015625,-0.984375 2.875,-0.8125 2.4375,-0.265625 2.03125,-0.109375 1.75,-0.109375 c -0.5,0 -0.640625,-0.546875 -0.640625,-0.9375 0,-0.5 0.3125,-1.71875 0.546875,-2.1875 0.3125,-0.578125 0.75,-0.953125 1.15625,-0.953125 0.640625,0 0.78125,0.8125 0.78125,0.875 0,0.0625 -0.015625,0.125 -0.03125,0.171875 z m 0,0"
             style="stroke:none;stroke-width:0"
             inkscape:connector-curvature="0" />
        </g>
        <g
           id="g6203"
           style="fill:#000000;fill-opacity:1">
          <path
             id="path6201"
             transform="translate(219.373,134.82)"
             d="m 1.578125,-7.125 c 0,-0.171875 0,-0.359375 -0.1875,-0.359375 -0.203125,0 -0.203125,0.1875 -0.203125,0.359375 v 9.265625 c 0,0.171875 0,0.359375 0.203125,0.359375 0.1875,0 0.1875,-0.1875 0.1875,-0.359375 z m 0,0"
             style="stroke:none;stroke-width:0"
             inkscape:connector-curvature="0" />
        </g>
        <g
           id="g6207"
           style="fill:#000000;fill-opacity:1">
          <path
             id="path6205"
             transform="translate(222.141,134.82)"
             d="m 4.53125,-4.984375 c 0,-0.65625 -0.171875,-2.046875 -1.1875,-2.046875 -1.390625,0 -2.921875,2.8125 -2.921875,5.09375 0,0.9375 0.28125,2.046875 1.1875,2.046875 1.40625,0 2.921875,-2.859375 2.921875,-5.09375 z M 1.46875,-3.625 C 1.640625,-4.25 1.84375,-5.046875 2.25,-5.765625 2.515625,-6.25 2.875,-6.8125 3.328125,-6.8125 c 0.484375,0 0.546875,0.640625 0.546875,1.203125 0,0.5 -0.078125,1 -0.3125,1.984375 z m 2,0.328125 C 3.359375,-2.84375 3.15625,-2 2.765625,-1.28125 c -0.34375,0.6875 -0.71875,1.171875 -1.15625,1.171875 -0.328125,0 -0.53125,-0.296875 -0.53125,-1.21875 0,-0.421875 0.0625,-1 0.3125,-1.96875 z m 0,0"
             style="stroke:none;stroke-width:0"
             inkscape:connector-curvature="0" />
        </g>
        <g
           id="g6211"
           style="fill:#000000;fill-opacity:1">
          <path
             id="path6209"
             transform="translate(226.818,136.314)"
             d="m 3.234375,0.421875 c 0,0.453125 0.09375,0.9375 0.671875,0.9375 0.84375,0 1.25,-1.203125 1.25,-1.359375 0,-0.046875 -0.046875,-0.09375 -0.109375,-0.09375 -0.0625,0 -0.078125,0.0625 -0.09375,0.09375 C 4.78125,0.484375 4.328125,0.625 4.09375,0.625 3.8125,0.625 3.671875,0.5 3.546875,-0.0625 4.78125,-0.5 5.78125,-1.734375 5.78125,-2.96875 c 0,-1.09375 -0.796875,-1.9375 -2.03125,-1.9375 -1.65625,0 -3.265625,1.5625 -3.265625,3.140625 0,1.125 0.828125,1.90625 2.03125,1.90625 0.125,0 0.359375,-0.015625 0.71875,-0.09375 z M 2.03125,-0.171875 c -0.359375,-0.125 -0.875,-0.484375 -0.875,-1.421875 0,-0.453125 0.140625,-1.375 0.78125,-2.15625 0.4375,-0.546875 1.109375,-0.921875 1.765625,-0.921875 0.75,0 1.390625,0.5 1.390625,1.515625 0,0.703125 -0.328125,2.203125 -1.609375,2.828125 C 3.375,-0.765625 3.1875,-1.046875 2.78125,-1.046875 2.390625,-1.046875 2,-0.71875 2,-0.359375 c 0,0.125 0.015625,0.140625 0.03125,0.1875 z m 1.203125,-0.03125 c -0.140625,0.046875 -0.40625,0.125 -0.671875,0.125 -0.109375,0 -0.359375,0 -0.359375,-0.28125 0,-0.265625 0.28125,-0.5 0.578125,-0.5 0.25,0 0.4375,0.109375 0.453125,0.65625 z m 0,0"
             style="stroke:none;stroke-width:0"
             inkscape:connector-curvature="0" />
        </g>
        <g
           id="g6215"
           style="fill:#000000;fill-opacity:1">
          <path
             id="path6213"
             transform="translate(233.59,134.82)"
             d="m 2.875,-2.5 c 0,-0.765625 -0.109375,-1.96875 -0.65625,-3.109375 -0.59375,-1.21875 -1.453125,-1.875 -1.546875,-1.875 -0.0625,0 -0.109375,0.046875 -0.109375,0.109375 0,0.03125 0,0.046875 0.1875,0.234375 0.984375,0.984375 1.546875,2.5625 1.546875,4.640625 0,1.71875 -0.359375,3.46875 -1.59375,4.71875 C 0.5625,2.34375 0.5625,2.359375 0.5625,2.390625 0.5625,2.453125 0.609375,2.5 0.671875,2.5 0.765625,2.5 1.671875,1.8125 2.25,0.546875 2.765625,-0.546875 2.875,-1.65625 2.875,-2.5 Z m 0,0"
             style="stroke:none;stroke-width:0"
             inkscape:connector-curvature="0" />
        </g>
      </g>
    </g>
  </g>
</svg>
